<svg id="visual" viewBox="0 0 900 600" width="900" height="600" xmlns="http://www.w3.org/2000/svg" xmlns:xlink="http://www.w3.org/1999/xlink" version="1.1"><rect width="900" height="600" fill="#931F1F"></rect><g><g transform="translate(208 169)"><path d="M89.4 -31.1C101.5 8.1 87 53.9 56.1 76C25.3 98.1 -21.8 96.5 -55.1 73C-88.4 49.5 -107.8 4.1 -96.3 -34.4C-84.8 -72.8 -42.4 -104.3 -1.9 -103.7C38.7 -103.1 77.4 -70.4 89.4 -31.1Z" stroke="#F7760E" fill="none" stroke-width="20"></path></g><g transform="translate(365 576)"><path d="M67.7 -23C76.2 4 63.4 36.9 40 53.6C16.5 70.3 -17.7 70.9 -40.3 54.6C-63 38.3 -74.1 5.3 -65.5 -22C-56.8 -49.2 -28.4 -70.8 0.6 -71C29.6 -71.2 59.2 -50 67.7 -23Z" stroke="#F7760E" fill="none" stroke-width="20"></path></g><g transform="translate(641 358)"><path d="M86.7 -28.8C98.9 9.3 86 54.9 54.5 78.5C23.1 102.2 -26.8 103.9 -57.3 81.2C-87.7 58.5 -98.8 11.4 -86 -27.5C-73.2 -66.5 -36.6 -97.2 0.3 -97.4C37.3 -97.5 74.5 -66.9 86.7 -28.8Z" stroke="#F7760E" fill="none" stroke-width="20"></path></g></g></svg>