<svg id="visual" viewBox="0 0 900 600" width="900" height="600" xmlns="http://www.w3.org/2000/svg" xmlns:xlink="http://www.w3.org/1999/xlink" version="1.1"><path d="M0 139L13.7 142C27.3 145 54.7 151 82 146C109.3 141 136.7 125 163.8 114C191 103 218 97 245.2 99C272.3 101 299.7 111 327 110C354.3 109 381.7 97 409 104C436.3 111 463.7 137 491 145C518.3 153 545.7 143 573 136C600.3 129 627.7 125 654.8 121C682 117 709 113 736.2 110C763.3 107 790.7 105 818 103C845.3 101 872.7 99 886.3 98L900 97L900 0L886.3 0C872.7 0 845.3 0 818 0C790.7 0 763.3 0 736.2 0C709 0 682 0 654.8 0C627.7 0 600.3 0 573 0C545.7 0 518.3 0 491 0C463.7 0 436.3 0 409 0C381.7 0 354.3 0 327 0C299.7 0 272.3 0 245.2 0C218 0 191 0 163.8 0C136.7 0 109.3 0 82 0C54.7 0 27.3 0 13.7 0L0 0Z" fill="#6198ff"></path><path d="M0 193L13.7 205C27.3 217 54.7 241 82 247C109.3 253 136.7 241 163.8 220C191 199 218 169 245.2 160C272.3 151 299.7 163 327 172C354.3 181 381.7 187 409 203C436.3 219 463.7 245 491 246C518.3 247 545.7 223 573 213C600.3 203 627.7 207 654.8 212C682 217 709 223 736.2 225C763.3 227 790.7 225 818 214C845.3 203 872.7 183 886.3 173L900 163L900 95L886.3 96C872.7 97 845.3 99 818 101C790.7 103 763.3 105 736.2 108C709 111 682 115 654.8 119C627.7 123 600.3 127 573 134C545.7 141 518.3 151 491 143C463.7 135 436.3 109 409 102C381.7 95 354.3 107 327 108C299.7 109 272.3 99 245.2 97C218 95 191 101 163.8 112C136.7 123 109.3 139 82 144C54.7 149 27.3 143 13.7 140L0 137Z" fill="#3c80ff"></path><path d="M0 367L13.7 372C27.3 377 54.7 387 82 398C109.3 409 136.7 421 163.8 425C191 429 218 425 245.2 401C272.3 377 299.7 333 327 319C354.3 305 381.7 321 409 332C436.3 343 463.7 349 491 353C518.3 357 545.7 359 573 368C600.3 377 627.7 393 654.8 405C682 417 709 425 736.2 408C763.3 391 790.7 349 818 336C845.3 323 872.7 339 886.3 347L900 355L900 161L886.3 171C872.7 181 845.3 201 818 212C790.7 223 763.3 225 736.2 223C709 221 682 215 654.8 210C627.7 205 600.3 201 573 211C545.7 221 518.3 245 491 244C463.7 243 436.3 217 409 201C381.7 185 354.3 179 327 170C299.7 161 272.3 149 245.2 158C218 167 191 197 163.8 218C136.7 239 109.3 251 82 245C54.7 239 27.3 215 13.7 203L0 191Z" fill="#0066ff"></path><path d="M0 457L13.7 455C27.3 453 54.7 449 82 453C109.3 457 136.7 469 163.8 471C191 473 218 465 245.2 445C272.3 425 299.7 393 327 389C354.3 385 381.7 409 409 415C436.3 421 463.7 409 491 412C518.3 415 545.7 433 573 446C600.3 459 627.7 467 654.8 472C682 477 709 479 736.2 467C763.3 455 790.7 429 818 417C845.3 405 872.7 407 886.3 408L900 409L900 353L886.3 345C872.7 337 845.3 321 818 334C790.7 347 763.3 389 736.2 406C709 423 682 415 654.8 403C627.7 391 600.3 375 573 366C545.7 357 518.3 355 491 351C463.7 347 436.3 341 409 330C381.7 319 354.3 303 327 317C299.7 331 272.3 375 245.2 399C218 423 191 427 163.8 423C136.7 419 109.3 407 82 396C54.7 385 27.3 375 13.7 370L0 365Z" fill="#0059dd"></path><path d="M0 601L13.7 601C27.3 601 54.7 601 82 601C109.3 601 136.7 601 163.8 601C191 601 218 601 245.2 601C272.3 601 299.7 601 327 601C354.3 601 381.7 601 409 601C436.3 601 463.7 601 491 601C518.3 601 545.7 601 573 601C600.3 601 627.7 601 654.8 601C682 601 709 601 736.2 601C763.3 601 790.7 601 818 601C845.3 601 872.7 601 886.3 601L900 601L900 407L886.3 406C872.7 405 845.3 403 818 415C790.7 427 763.3 453 736.2 465C709 477 682 475 654.8 470C627.7 465 600.3 457 573 444C545.7 431 518.3 413 491 410C463.7 407 436.3 419 409 413C381.7 407 354.3 383 327 387C299.7 391 272.3 423 245.2 443C218 463 191 471 163.8 469C136.7 467 109.3 455 82 451C54.7 447 27.3 451 13.7 453L0 455Z" fill="#004cbb"></path></svg>